<?xml version="1.0" encoding="utf-8"?>
<!-- Generator: Adobe Illustrator 14.0.0, SVG Export Plug-In . SVG Version: 6.00 Build 43363)  -->
<!DOCTYPE svg PUBLIC "-//W3C//DTD SVG 1.1//EN" "http://www.w3.org/Graphics/SVG/1.1/DTD/svg11.dtd">
<svg version="1.1" id="Layer_1" xmlns="http://www.w3.org/2000/svg" xmlns:xlink="http://www.w3.org/1999/xlink" x="0px" y="0px"
	 width="600px" height="200px" viewBox="0 0 600 200" enable-background="new 0 0 600 200" xml:space="preserve">
<g>
	<path fill="#FE7E01" d="M94.05,72.995c0,24.085-15.036,38.099-41.165,38.099H34.638v28.319H7.924V37.084h44.96
		C79.014,37.084,94.05,50.223,94.05,72.995z M68.65,73.87L34.638,56.107V92.07L68.65,73.87z"/>
	<path fill="#FE7E01" d="M158.575,59.418v23.794c-14.452-1.461-24.086,4.963-25.4,15.91v40.29h-25.983V60.44h25.983v13.138
		C138.576,64.527,147.481,59.418,158.575,59.418z"/>
	<path fill="#FE7E01" d="M244.556,106.861H189.67c2.481,8.904,9.05,13.867,17.955,13.867c6.714,0,13.283-2.773,18.539-8.029
		l13.576,13.576c-8.029,9.051-19.853,14.014-34.45,14.014c-25.837,0-41.749-15.912-41.749-39.997
		c0-24.524,16.495-40.727,41.165-40.727C232.295,59.565,246.308,78.104,244.556,106.861z M219.449,92.993
		c0-9.051-5.84-15.182-14.598-15.182c-8.466,0-14.014,6.131-15.765,15.182H219.449z"/>
	<path fill="#C6C5B9" d="M344.115,72.995c0,24.085-15.034,38.099-41.165,38.099h-18.246v28.319H257.99V37.084h44.96
		C329.081,37.084,344.115,50.223,344.115,72.995z M318.717,73.87l-34.013-17.763V92.07L318.717,73.87z"/>
	<path fill="#C6C5B9" d="M383.972,31.1v108.313h-25.983V31.1H383.972z"/>
	<path fill="#C6C5B9" d="M474.769,88.029v51.384h-25.546v-8.905c-5.108,6.57-13.138,10.072-23.793,10.072
		c-16.934,0-27.006-10.217-27.006-24.669c0-15.036,10.656-23.647,30.218-23.94h20.581v-0.876c0-7.444-5.108-11.823-15.034-11.823
		c-6.569,0-15.182,2.189-23.648,6.276l-7.152-17.517c12.407-5.547,23.794-8.613,36.785-8.613
		C461.924,59.418,474.623,69.929,474.769,88.029z M449.223,112.699v-6.86H433.75c-7.299,0-10.947,2.627-10.947,8.175
		c0,5.401,3.94,8.904,10.655,8.904C441.194,122.918,447.618,118.686,449.223,112.699z"/>
	<path fill="#C6C5B9" d="M502.949,168.9c-8.905,0-16.204-2.628-23.356-8.175l10.802-17.955c3.649,3.065,6.715,4.379,10.51,4.379
		c4.38,0,7.445-2.044,9.489-5.984l1.897-3.65L479.593,60.44h26.713l18.831,51.383l16.787-51.383h25.838l-33.866,86.709
		C527.91,161.894,517.839,168.9,502.949,168.9z"/>
	<path fill="#C6C5B9" d="M593.167,127.881c0,7.445-5.255,12.699-12.553,12.699c-7.299,0-12.409-5.254-12.409-12.699
		c0-7.444,5.11-12.555,12.409-12.555C587.912,115.326,593.167,120.437,593.167,127.881z"/>
</g>
</svg>
