<?xml version="1.0" encoding="utf-8"?>
<!-- Generator: Adobe Illustrator 14.0.0, SVG Export Plug-In . SVG Version: 6.00 Build 43363)  -->
<!DOCTYPE svg PUBLIC "-//W3C//DTD SVG 1.1//EN" "http://www.w3.org/Graphics/SVG/1.1/DTD/svg11.dtd">
<svg version="1.1" id="Layer_1" xmlns="http://www.w3.org/2000/svg" xmlns:xlink="http://www.w3.org/1999/xlink" x="0px" y="0px"
	 width="200px" height="300px" viewBox="0 0 200 300" enable-background="new 0 0 200 300" xml:space="preserve">
<g>
	<path fill="#FE7E01" d="M100.255,264.217c34.606,0,63.103-26.961,63.103-60.786c0-33.821-27.989-60.784-63.103-60.784
		c-34.606,0-63.104,26.962-63.104,60.784C37.15,237.256,65.648,264.217,100.255,264.217z M100.255,156.861
		c26.972,0,48.853,21.079,48.853,47.06c0,25.982-21.881,47.062-48.853,47.062c-26.973,0-48.856-21.078-48.856-47.062
		C51.398,177.94,73.283,156.861,100.255,156.861z"/>
	<path fill="#FE7E01" d="M100.255,113.234c19.846,0,36.133-15.687,36.133-34.805c0-19.117-16.287-34.803-36.133-34.803
		c-19.849,0-36.133,15.686-36.133,34.803C64.123,97.549,80.407,113.234,100.255,113.234z M100.255,57.843
		c12.212,0,21.881,9.313,21.881,21.079c0,11.764-9.669,21.079-21.881,21.079c-12.215,0-21.883-9.313-21.883-21.079
		S88.04,57.843,100.255,57.843z"/>
	<path fill="#FE7E01" d="M0,0v300h200V0H0L0,0z M185.751,286.274H14.25V13.725h171.501V286.274z"/>
</g>
</svg>
