<svg xmlns="http://www.w3.org/2000/svg" xmlns:xlink="http://www.w3.org/1999/xlink" version="1.1" x="0px" y="0px" viewBox="0 0 100 125" enable-background="new 0 0 100 100" xml:space="preserve"><g><rect x="60.2" y="16.4" width="2.8" height="2.8" fill="#C6C5B9"/><rect x="60.2" y="24.1" width="2.8" height="4.9" fill="#C6C5B9"/><path d="M93.8,62l-2.5-9.3c0.7-1.8,0.9-3.6,0.9-5V24.3c0-12.9-13-13.1-13.1-13.1H20.7c-10.4,0-13.1,8.6-13.1,13.1v23.4   c0,0.9,0.1,1.8,0.2,2.5c-1.8,2.6-2.2,5.5-2.2,7.5c0,2.1,0.4,3.6,0.4,3.7L12.1,84c2.3,8.5,8.6,9.7,12.1,9.7c2.2,0,3.9-0.5,3.9-0.5   L84.6,78c8.4-2.3,9.6-8.7,9.6-12.4C94.2,63.6,93.8,62.1,93.8,62z M20.7,14.1h58.4c0.4,0,10.3,0.1,10.3,10.3v21.4l-1.7-6.3   c-2.3-8.4-8.7-9.6-12.4-9.6c-2.1,0-3.6,0.4-3.7,0.4L15.3,45.4c-2,0.5-3.6,1.3-4.8,2.2V24.3C10.4,23.9,10.6,14.1,20.7,14.1z    M83.9,75.3L27.4,90.5c0,0-1.4,0.4-3.2,0.4c-4.9,0-8-2.6-9.4-7.7L8.8,60.7c0,0-0.3-1.3-0.3-3c0-3.5,1.3-8,7.6-9.7l56.4-15.2   c0,0,1.3-0.3,3-0.3c3.5,0,8,1.3,9.7,7.6l3.3,12.3c0,0,0,0,0,0c0,0,0,0,0,0l2.8,10.2c0,0,0.3,1.3,0.3,3   C91.4,69.1,90.1,73.6,83.9,75.3z" fill="#C6C5B9"/><rect x="55.1" y="39.7" transform="matrix(0.9656 -0.2602 0.2602 0.9656 -8.7448 16.1109)" width="2.8" height="2.8" fill="#C6C5B9"/><rect x="59.9" y="56.5" transform="matrix(0.9655 -0.2605 0.2605 0.9655 -13.2516 18.0092)" width="2.8" height="4.9" fill="#C6C5B9"/><rect x="57.4" y="47.1" transform="matrix(0.9655 -0.2605 0.2605 0.9655 -10.8754 17.018)" width="2.8" height="4.9" fill="#C6C5B9"/><rect x="62.5" y="66" transform="matrix(0.9655 -0.2605 0.2605 0.9655 -15.6279 19.0004)" width="2.8" height="4.9" fill="#C6C5B9"/><rect x="64.7" y="75.5" transform="matrix(-0.2602 -0.9656 0.9656 -0.2602 9.0941 160.7667)" width="2.8" height="2.8" fill="#C6C5B9" /></g></svg>